<svg xmlns="http://www.w3.org/2000/svg" width="34.122" height="34.122" viewBox="0 0 34.122 34.122">
  <g id="next_1_" data-name="next (1)" transform="translate(34.122 34.122) rotate(180)">
    <g id="Group_27" data-name="Group 27" transform="translate(0 0)">
      <g id="Group_26" data-name="Group 26">
        <path id="Path_8" data-name="Path 8" d="M17.061,0A17.061,17.061,0,1,0,34.122,17.061,17.061,17.061,0,0,0,17.061,0Zm0,31.278A14.217,14.217,0,1,1,31.278,17.061,14.218,14.218,0,0,1,17.061,31.278Z" transform="translate(0 0)" fill="#5a5a5a"/>
        <path id="Path_9" data-name="Path 9" d="M2.427.416A1.422,1.422,0,0,0,.416,2.427l6.1,6.1-6.1,6.1a1.422,1.422,0,1,0,2.011,2.011L9.536,9.536a1.422,1.422,0,0,0,0-2.011Z" transform="translate(12.796 8.53)" fill="#5a5a5a"/>
      </g>
    </g>
  </g>
</svg>
